<svg xmlns="http://www.w3.org/2000/svg" version="1.0" width="1281.000000pt" height="1025.000000pt" viewBox="0 0 1281.000000 1025.000000" preserveAspectRatio="xMidYMid meet">
<metadata fill="#ffffff">
Created by potrace 1.16, written by Peter Selinger 2001-2019
</metadata>
<g transform="translate(0.000000,1025.000000) scale(0.100000,-0.100000)" fill="#ffffff" stroke="none">
<path d="M3785 9758 c-104 -4 -239 -14 -300 -23 -111 -16 -268 -62 -269 -79 -1 -5 22 -17 50 -27 80 -27 261 -123 377 -199 131 -86 148 -109 36 -46 -311 175 -552 252 -619 198 -46 -37 -34 -146 31 -290 39 -87 75 -130 181 -213 157 -124 258 -242 258 -303 0 -31 -21 -57 -56 -72 -19 -8 -34 -19 -34 -26 0 -27 195 -200 350 -310 91 -65 273 -211 406 -325 132 -115 321 -276 420 -359 98 -84 188 -162 199 -175 49 -56 -377 262 -685 512 -124 100 -274 216 -335 258 -268 183 -379 283 -424 382 -16 35 -31 75 -35 89 -5 25 -4 25 52 25 45 0 57 3 60 17 4 23 -111 143 -229 239 -102 82 -151 145 -191 242 -13 31 -26 57 -29 57 -4 0 -12 -21 -18 -47 -27 -105 -98 -183 -293 -322 -86 -61 -120 -91 -127 -114 -15 -41 -6 -50 132 -126 63 -35 127 -73 142 -85 l28 -23 -31 -19 c-36 -21 -39 -35 -16 -90 25 -60 86 -144 261 -362 90 -111 163 -204 163 -207 0 -33 -307 271 -400 395 -79 107 -112 178 -109 238 l3 44 -74 45 c-41 25 -83 52 -93 61 -29 26 -39 -1 -32 -83 30 -343 267 -633 945 -1155 344 -265 426 -340 730 -659 280 -295 399 -387 665 -516 83 -40 268 -130 412 -200 233 -113 270 -128 327 -132 72 -6 121 11 185 65 l35 29 -48 12 c-103 26 -174 74 -449 304 -285 239 -354 287 -412 287 -19 0 -56 26 -128 88 -56 49 -181 152 -277 229 -271 218 -338 293 -797 893 -66 87 136 -124 292 -305 211 -244 370 -400 535 -525 69 -52 180 -141 247 -197 67 -57 131 -103 141 -103 60 0 189 -93 479 -342 295 -255 309 -263 453 -261 307 6 360 9 356 18 -2 6 -12 30 -22 54 -9 24 -36 62 -59 85 -76 77 -120 201 -108 309 5 42 2 52 -19 75 -93 99 -79 259 28 334 l42 30 7 152 c11 245 -17 430 -90 581 -61 128 -149 204 -236 205 -51 0 -237 -95 -393 -202 -12 -8 14 -40 58 -70 31 -23 46 -14 46 30 0 29 21 28 88 -3 87 -40 194 -158 281 -310 17 -28 -10 -5 -89 78 -95 99 -191 176 -222 177 -3 0 -11 -23 -18 -50 -7 -28 -15 -52 -19 -55 -17 -10 -155 117 -442 406 -324 326 -437 427 -574 510 -47 29 -85 53 -85 55 0 8 58 -14 145 -56 131 -63 315 -210 542 -434 95 -93 175 -167 178 -164 3 3 15 39 26 79 30 108 92 229 143 282 24 25 71 59 104 76 54 27 82 36 175 56 28 6 24 10 -125 154 -192 185 -340 350 -475 528 -246 323 -301 372 -560 502 -185 92 -288 134 -393 159 -111 27 -148 29 -375 20z" fill="#ffffff"/>
<path d="M6275 8839 c-99 -33 -328 -148 -327 -164 1 -5 42 -15 92 -22 241 -32 462 -164 590 -352 101 -149 168 -354 220 -670 l12 -74 81 6 c44 4 82 9 85 12 3 3 0 55 -7 117 -29 251 -117 510 -231 678 -64 95 -108 142 -217 235 -128 108 -162 149 -178 212 -7 26 -16 48 -21 50 -5 1 -50 -11 -99 -28z" fill="#ffffff"/>
<path d="M5934 8340 c-42 -18 -107 -34 -165 -41 -127 -16 -185 -39 -243 -97 -60 -59 -167 -272 -137 -272 5 0 58 27 117 60 184 102 296 125 389 80 99 -48 209 -213 259 -390 36 -127 49 -261 45 -470 l-4 -185 57 -7 c32 -4 83 -14 115 -22 32 -9 61 -12 64 -8 25 28 37 370 18 507 -34 246 -117 423 -266 570 -40 39 -73 79 -73 88 0 9 16 37 35 63 69 90 32 155 -87 153 -34 0 -78 -10 -124 -29z" fill="#ffffff"/>
<path d="M8905 7765 c-92 -20 -263 -79 -348 -119 -183 -87 -322 -211 -385 -344 -32 -68 -36 -85 -40 -181 -3 -78 0 -124 12 -171 58 -227 194 -335 514 -406 l124 -27 121 61 c212 106 308 127 420 92 l68 -21 38 30 c79 63 166 204 196 318 19 74 19 242 0 318 -42 168 -162 329 -295 399 -118 63 -284 82 -425 51z m545 -511 c40 -131 22 -305 -43 -417 -39 -66 -47 -70 -92 -47 -47 24 -94 25 -206 5 -146 -25 -312 -91 -373 -149 -30 -28 -33 -28 -76 -17 -88 24 -199 117 -282 239 -36 54 -26 48 76 -46 75 -68 210 -142 231 -126 152 116 353 188 520 186 50 0 103 -2 120 -4 25 -3 32 3 52 37 38 68 56 173 51 297 -3 59 -4 108 -2 108 2 0 12 -30 24 -66z" fill="#ffffff"/>
<path d="M6504 7579 c27 -246 27 -351 0 -569 l-6 -56 53 -24 c65 -31 155 -118 167 -162 5 -19 5 -47 0 -66 -7 -25 -5 -42 5 -65 19 -40 34 -120 42 -222 8 -102 24 -165 41 -165 7 0 31 -26 53 -59 38 -55 90 -104 136 -129 12 -6 57 -20 102 -31 178 -44 277 -128 343 -289 22 -53 31 -66 46 -64 38 7 377 103 390 110 11 6 9 15 -12 42 -43 57 -74 133 -81 201 -6 63 -8 65 -103 179 -53 63 -208 257 -344 430 -137 173 -258 324 -271 335 -12 11 -40 46 -62 77 -73 107 -471 579 -495 587 -8 3 -9 -15 -4 -60z" fill="#ffffff"/>
<path d="M6923 7492 c-46 -2 -83 -5 -83 -8 0 -2 11 -27 26 -55 29 -58 25 -56 240 -129 86 -29 164 -50 189 -50 56 0 87 24 88 71 3 115 -176 181 -460 171z" fill="#ffffff"/>
<path d="M9730 7416 c0 -7 25 -50 56 -95 74 -109 139 -247 165 -350 25 -99 24 -246 -3 -295 l-16 -30 -6 75 c-4 41 -14 110 -22 154 -18 91 -102 315 -120 315 -20 0 -11 -92 14 -134 13 -22 34 -72 48 -112 66 -197 2 -424 -166 -594 -87 -88 -182 -148 -295 -185 -90 -31 -199 -84 -172 -85 40 -1 227 44 312 75 101 37 223 94 335 156 l75 42 -55 -57 c-67 -70 -146 -125 -259 -181 -160 -79 -331 -116 -548 -118 -73 -1 -133 -4 -133 -7 0 -3 23 -20 51 -39 102 -70 227 -238 325 -436 58 -119 120 -295 130 -369 4 -25 11 -46 16 -46 33 0 269 203 364 313 32 37 60 63 62 57 7 -21 -56 -134 -113 -202 -67 -82 -165 -165 -260 -221 -38 -22 -97 -66 -130 -97 -76 -71 -96 -82 -258 -131 -73 -22 -139 -43 -147 -46 -26 -10 131 -43 236 -50 155 -9 346 27 510 97 69 30 39 -1 -55 -56 -98 -58 -238 -102 -365 -116 -119 -13 -227 1 -391 52 -75 24 -113 30 -152 27 -29 -2 -56 -6 -59 -10 -13 -12 9 -67 42 -106 45 -52 101 -91 229 -158 55 -29 91 -53 79 -53 -28 0 -148 41 -219 76 -103 51 -195 152 -195 214 0 16 -5 20 -17 17 -10 -3 -40 -8 -68 -12 -90 -11 -86 -6 -60 -91 79 -256 539 -560 822 -542 104 7 146 35 250 173 47 61 121 148 167 195 161 166 226 241 266 308 98 167 233 701 270 1071 13 134 13 465 -1 589 -46 423 -216 784 -466 987 -58 47 -73 54 -73 31z" fill="#ffffff"/>
<path d="M7803 7393 c-36 -8 -63 -20 -63 -27 0 -7 7 -34 16 -60 24 -69 15 -184 -19 -259 -35 -76 -69 -120 -131 -164 -28 -20 -53 -38 -55 -40 -15 -11 158 -102 249 -131 87 -28 177 -42 278 -42 l84 0 -22 33 c-77 115 -114 244 -113 397 0 99 4 125 27 190 48 133 56 120 -75 119 -63 0 -142 -7 -176 -16z" fill="#ffffff"/>
<path d="M7446 7302 c-3 -22 -15 -51 -27 -66 -47 -60 -113 -70 -243 -36 l-79 21 -23 -22 c-36 -34 -32 -86 9 -138 62 -78 127 -103 215 -82 44 11 53 9 134 -24 48 -19 95 -35 104 -35 24 0 127 109 151 160 26 58 36 117 28 172 l-7 43 -96 23 c-53 12 -111 22 -128 22 -29 0 -32 -3 -38 -38z" fill="#ffffff"/>
<path d="M3426 7293 c29 -133 55 -188 205 -429 49 -79 100 -169 115 -201 21 -50 64 -184 64 -204 0 -4 -18 -9 -40 -13 -68 -11 -90 -25 -90 -61 0 -82 169 -254 430 -435 41 -29 64 -49 50 -45 -80 24 -268 142 -376 236 -166 145 -214 265 -134 333 17 13 39 28 51 31 17 6 19 12 14 33 -12 51 -73 170 -172 334 -106 176 -159 289 -170 363 -8 61 -29 58 -42 -5 -18 -82 -13 -218 14 -393 34 -224 40 -320 25 -390 -13 -64 -36 -92 -167 -205 -67 -57 -100 -114 -128 -220 l-16 -64 48 -56 c281 -335 546 -560 1010 -860 159 -102 244 -173 503 -417 348 -328 382 -353 650 -496 200 -106 248 -136 308 -193 70 -66 85 -104 88 -226 3 -124 13 -165 39 -165 36 0 82 78 125 214 40 125 41 129 26 166 -54 129 -195 263 -501 476 -125 87 -327 245 -552 432 -140 116 -174 157 -261 313 -28 49 -69 111 -91 136 -59 66 -195 155 -387 253 -217 110 -415 250 -475 337 -19 28 -15 25 29 -15 102 -94 239 -173 543 -315 139 -65 264 -148 330 -220 30 -32 79 -101 109 -152 30 -52 71 -115 91 -141 40 -49 464 -394 639 -518 339 -240 497 -382 558 -498 18 -35 36 -63 40 -63 4 0 27 6 52 13 38 11 48 20 68 58 41 83 49 192 20 289 -19 63 -77 171 -135 249 -31 42 -140 159 -243 260 -143 142 -169 172 -115 131 253 -195 412 -360 498 -520 54 -100 70 -167 65 -276 -3 -76 -1 -94 10 -94 8 0 69 55 137 122 149 150 180 203 173 302 -5 78 -37 146 -160 333 -109 165 -184 265 -463 613 -121 151 -237 299 -258 328 -36 48 -52 59 -180 122 -78 38 -189 94 -247 125 -58 30 -193 97 -300 149 -107 51 -229 116 -271 144 -113 74 -281 227 -499 453 -107 111 -238 241 -290 287 -115 103 -344 282 -359 282 -7 0 -9 -10 -5 -27z m1524 -1524 c52 -42 160 -134 240 -203 189 -165 343 -283 508 -386 276 -172 401 -286 476 -437 37 -73 32 -87 -9 -26 -82 122 -205 221 -476 384 -228 138 -388 267 -657 534 -292 288 -310 317 -82 134z" fill="#ffffff"/>
<path d="M9671 6842 c-59 -116 -72 -135 -161 -224 -86 -84 -98 -101 -104 -140 -4 -23 -22 -81 -41 -127 -19 -47 -33 -87 -30 -89 8 -8 86 25 155 65 122 72 215 189 254 322 23 78 21 321 -3 321 -3 0 -35 -57 -70 -128z" fill="#ffffff"/>
<path d="M6083 6916 c-22 -19 -28 -32 -27 -63 1 -43 25 -87 52 -98 45 -18 308 -66 398 -71 95 -6 103 -5 123 15 25 25 26 42 7 80 -41 78 -267 161 -443 161 -72 0 -85 -3 -110 -24z" fill="#ffffff"/>
<path d="M6141 6615 c-22 -98 1 -152 118 -272 83 -86 101 -119 121 -225 15 -77 37 -103 86 -102 89 2 221 81 250 150 11 26 12 54 3 141 -14 159 -27 239 -44 279 -13 31 -17 34 -42 27 -47 -13 -150 -5 -298 22 -77 14 -149 28 -161 31 -18 5 -22 -2 -33 -51z" fill="#ffffff"/>
<path d="M9123 6558 c-51 -11 -266 -119 -266 -133 -1 -16 71 -53 158 -81 103 -33 197 -36 245 -8 43 25 78 93 82 159 2 49 2 50 -32 62 -41 14 -128 15 -187 1z" fill="#ffffff"/>
<path d="M8390 6494 c0 -24 116 -191 169 -245 90 -90 132 -104 306 -104 107 1 152 6 253 30 67 15 122 31 122 34 0 4 -55 19 -122 35 -136 31 -227 70 -291 126 -35 30 -55 39 -117 49 -41 7 -126 29 -187 47 -116 35 -133 38 -133 28z" fill="#ffffff"/>
<path d="M8253 6428 c-118 -178 -149 -318 -93 -427 11 -23 23 -41 26 -41 3 0 38 16 78 35 95 45 212 75 296 75 37 0 69 3 73 6 3 4 -34 45 -82 93 -49 47 -104 111 -123 141 -19 30 -53 83 -74 117 -21 35 -44 63 -49 63 -6 0 -29 -28 -52 -62z" fill="#ffffff"/>
<path d="M7888 6134 c-15 -8 -31 -26 -34 -40 -18 -72 30 -204 89 -246 33 -23 42 -21 132 37 l54 34 -24 53 c-14 29 -27 78 -31 110 -5 46 -10 57 -28 62 -40 11 -131 5 -158 -10z" fill="#ffffff"/>
<path d="M6737 6026 c-31 -30 -87 -68 -123 -86 -37 -18 -63 -37 -60 -43 3 -7 10 -30 16 -53 10 -36 16 -41 58 -54 46 -13 72 -12 232 17 34 6 34 6 19 -17 -8 -13 -40 -37 -70 -54 -47 -27 -63 -31 -124 -30 -38 1 -81 4 -95 5 -23 4 -25 1 -28 -42 -6 -90 61 -215 214 -399 43 -52 114 -139 157 -192 111 -138 215 -231 312 -279 121 -59 177 -70 351 -70 241 1 393 22 894 126 168 35 352 70 410 79 187 29 224 37 303 68 42 16 82 38 87 48 19 35 11 119 -17 188 -47 119 -179 387 -221 448 -121 180 -288 262 -507 251 -81 -4 -195 -28 -195 -42 0 -1 22 -35 49 -76 26 -41 70 -116 96 -168 69 -139 149 -351 132 -351 -6 0 -65 97 -147 245 -83 148 -164 278 -185 295 -12 10 -27 2 -82 -39 -38 -28 -112 -73 -165 -99 -73 -35 -96 -51 -91 -62 49 -116 94 -329 92 -431 -1 -41 -3 -38 -30 51 -73 236 -101 317 -121 349 -20 31 -24 33 -60 27 -41 -7 -165 -53 -172 -65 -3 -4 8 -34 24 -66 46 -97 61 -169 67 -315 7 -190 -8 -220 -31 -61 -9 67 -28 161 -42 209 -24 83 -86 205 -118 231 -27 22 -34 3 -17 -41 12 -32 16 -77 16 -173 0 -138 -15 -211 -55 -270 l-20 -30 7 35 c5 19 8 105 8 190 0 124 -4 165 -18 208 -23 65 -48 70 -76 14 -37 -73 -130 -144 -246 -187 -106 -40 -100 -31 56 78 76 53 138 135 146 193 7 54 -30 147 -80 202 -51 54 -109 84 -251 129 -106 34 -113 38 -173 99 -35 35 -64 64 -65 64 -2 -1 -29 -25 -61 -54z" fill="#ffffff"/>
<path d="M5993 6030 c-64 -22 -99 -46 -180 -121 -38 -35 -79 -63 -103 -70 -22 -7 -40 -17 -40 -23 0 -12 65 -95 285 -366 324 -397 488 -628 565 -792 38 -81 42 -87 92 -109 48 -22 67 -24 208 -25 85 0 169 -4 185 -9 63 -17 132 -60 196 -121 36 -35 71 -64 78 -64 7 0 60 26 119 59 59 32 177 94 262 137 l155 79 -190 6 c-231 7 -346 30 -470 91 -90 45 -236 199 -364 383 -58 83 -144 200 -192 260 -155 197 -182 270 -139 386 l22 62 -27 69 c-17 43 -42 84 -65 106 -20 21 -39 43 -41 50 -3 9 -37 16 -104 22 -146 13 -194 11 -252 -10z" fill="#ffffff"/>
<path d="M3060 5703 c0 -22 52 -208 74 -267 34 -90 104 -227 161 -315 96 -149 119 -231 92 -336 -25 -98 -53 -164 -112 -265 -77 -131 -96 -173 -108 -244 -46 -271 283 -730 873 -1222 113 -93 473 -384 800 -646 327 -262 636 -510 685 -552 50 -41 95 -76 100 -76 6 0 32 46 58 102 l48 103 -38 34 c-81 72 -221 175 -440 325 -316 216 -472 349 -565 484 -31 45 -29 44 54 -30 121 -107 246 -198 492 -357 230 -149 328 -218 447 -318 43 -34 81 -63 86 -63 14 0 153 292 222 465 32 83 77 192 100 243 23 51 41 99 41 106 0 7 -48 51 -107 96 -454 351 -534 459 -517 696 11 152 -20 189 -251 298 -242 116 -333 184 -630 476 -311 305 -352 336 -837 634 -173 105 -389 291 -591 506 -112 120 -137 142 -137 123z m668 -1085 c108 -65 223 -151 346 -257 89 -76 477 -430 516 -469 30 -30 -138 90 -231 165 -349 282 -424 342 -514 402 -131 89 -246 154 -256 144 -5 -5 -20 -55 -35 -113 -19 -77 -28 -140 -31 -238 -5 -131 -6 -132 -34 -156 -71 -60 -9 -139 236 -303 101 -68 467 -362 683 -550 129 -113 165 -148 130 -127 -26 16 -311 224 -538 394 -129 97 -287 210 -350 251 -148 98 -212 156 -246 225 -24 50 -26 59 -15 94 6 21 23 48 36 58 24 19 25 25 25 121 0 85 6 124 41 258 23 87 43 168 46 180 l5 22 52 -26 c28 -14 88 -48 134 -75z" fill="#ffffff"/>
<path d="M8198 4681 c-54 -10 -100 -20 -103 -23 -14 -14 90 -472 155 -683 43 -142 131 -385 139 -385 12 0 176 71 185 80 5 5 4 56 -3 122 -31 283 -111 616 -183 758 -24 47 -48 100 -55 118 -6 17 -17 32 -25 31 -7 -1 -57 -9 -110 -18z" fill="#ffffff"/>
<path d="M7780 4464 c-492 -253 -744 -411 -990 -619 -95 -81 -158 -120 -210 -130 -19 -4 -55 -18 -79 -32 -65 -38 -89 -99 -107 -271 -17 -163 -28 -226 -59 -352 -66 -264 -246 -710 -441 -1095 -142 -281 -224 -468 -224 -513 0 -16 19 -25 113 -51 119 -34 414 -95 509 -106 l56 -7 39 72 c21 39 116 214 212 388 234 428 355 664 381 742 12 36 37 139 56 230 43 208 68 300 101 373 14 31 24 59 22 62 -2 2 -36 -5 -74 -16 -114 -32 -315 -38 -315 -10 0 5 44 16 97 26 179 32 285 76 519 215 72 43 160 93 195 110 68 35 170 73 176 66 3 -2 -26 -26 -64 -52 -37 -26 -70 -49 -72 -51 -48 -35 452 64 594 119 30 11 55 24 55 27 0 4 -21 65 -46 136 -63 179 -148 478 -189 672 -19 89 -35 164 -35 167 0 12 -20 3 -220 -100z" fill="#ffffff"/>
<path d="M6570 4423 c-1 -140 -186 -353 -455 -525 -107 -68 -149 -125 -214 -290 -27 -68 -86 -138 -142 -170 -21 -12 -39 -26 -39 -32 0 -26 446 -426 484 -434 21 -5 52 146 76 358 28 260 66 409 112 448 8 6 62 31 120 55 142 60 217 105 381 230 75 58 178 131 227 162 50 31 90 61 90 66 0 18 -135 119 -181 134 -35 12 -82 15 -186 14 -102 -1 -154 2 -198 15 -32 9 -63 16 -67 16 -4 0 -8 -21 -8 -47z" fill="#ffffff"/>
<path d="M9784 4328 c-62 -65 -104 -124 -139 -193 -29 -59 -107 -133 -173 -163 -48 -23 -72 -27 -154 -29 l-96 -1 -36 -40 c-55 -60 -132 -116 -223 -161 -46 -23 -83 -45 -83 -49 1 -15 131 -104 182 -124 76 -30 179 -30 238 -1 25 13 92 65 150 118 58 52 155 138 215 190 198 173 265 267 265 373 0 50 -5 66 -30 100 -17 23 -36 42 -43 42 -8 0 -41 -28 -73 -62z" fill="#ffffff"/>
<path d="M8544 4292 c30 -95 73 -337 102 -579 3 -24 10 -43 15 -43 5 0 23 15 39 33 22 26 52 41 127 67 54 18 128 48 165 68 64 32 158 105 158 121 0 4 -26 15 -57 25 -140 44 -294 131 -442 250 -97 79 -116 89 -107 58z" fill="#ffffff"/>
<path d="M8670 3622 c-41 -16 -45 -21 -53 -62 -14 -73 -1 -246 20 -283 25 -43 77 -49 115 -14 34 32 42 83 33 228 -9 156 -20 167 -115 131z" fill="#ffffff"/>
<path d="M8846 3612 c-3 -5 -1 -47 4 -93 12 -100 4 -199 -20 -255 -10 -25 -14 -47 -10 -55 5 -7 6 -25 3 -39 -2 -15 0 -45 6 -67 25 -91 113 -125 165 -62 24 28 26 37 26 132 0 56 -5 157 -12 225 l-12 123 -61 43 c-79 56 -83 58 -89 48z" fill="#ffffff"/>
<path d="M9065 3458 c2 -13 9 -79 15 -147 6 -69 11 -125 13 -126 1 -1 23 -5 49 -8 43 -6 49 -4 69 21 20 25 21 34 15 141 -3 63 -9 118 -13 122 -5 3 -41 10 -81 13 -72 7 -73 7 -67 -16z" fill="#ffffff"/>
<path d="M3885 2913 c4 -37 20 -112 35 -167 27 -95 51 -215 116 -581 36 -206 92 -395 180 -617 99 -249 134 -405 134 -598 0 -180 61 -256 221 -277 l47 -5 -1 78 c-1 91 18 145 74 209 45 50 92 70 218 90 57 9 121 23 143 31 43 15 211 128 242 163 11 11 23 21 27 21 13 0 180 131 183 144 2 6 17 58 34 116 22 75 28 108 20 117 -19 24 -372 309 -733 593 -431 339 -627 497 -797 642 -70 59 -132 108 -139 108 -8 0 -9 -19 -4 -67z" fill="#ffffff"/>
<path d="M5510 1268 c-47 -39 -86 -74 -88 -77 -4 -10 190 -80 266 -95 100 -21 203 -28 239 -17 31 9 198 120 191 126 -2 2 -73 19 -158 39 -85 19 -195 47 -245 61 -49 14 -97 27 -105 30 -8 2 -53 -28 -100 -67z" fill="#ffffff"/>
<path d="M6169 1172 c-7 -22 -33 -45 -92 -83 -347 -224 -479 -296 -640 -352 -83 -28 -104 -31 -212 -32 -118 0 -121 1 -197 37 -52 25 -95 55 -137 97 -34 34 -66 61 -72 61 -20 0 -63 -113 -67 -176 -4 -53 -1 -65 17 -83 12 -12 21 -30 21 -40 0 -27 37 -54 123 -89 100 -42 189 -56 321 -49 157 7 248 37 526 172 129 63 278 128 330 146 l95 33 31 75 c18 42 43 104 58 138 14 34 29 82 32 106 l6 45 -48 7 c-27 4 -57 9 -67 12 -13 3 -20 -4 -28 -25z" fill="#ffffff"/>
<path d="M5280 1084 c-71 -57 -205 -126 -300 -154 l-75 -22 35 -30 c64 -54 169 -98 245 -105 86 -7 212 16 330 58 80 29 285 142 285 157 0 4 -49 19 -108 33 -59 15 -155 45 -213 68 -58 22 -114 41 -125 40 -10 0 -44 -20 -74 -45z" fill="#ffffff"/>
</g>
</svg>