<svg xmlns="http://www.w3.org/2000/svg" version="1.0" width="1017.000000pt" height="813.000000pt" viewBox="0 0 1017.000000 813.000000" preserveAspectRatio="xMidYMid meet">
<metadata fill="#ffffff">
Created by potrace 1.16, written by Peter Selinger 2001-2019
</metadata>
<g transform="translate(0.000000,813.000000) scale(0.100000,-0.100000)" fill="#ffffff" stroke="none">
<path d="M4584 7907 c-18 -6 -49 -33 -70 -58 -45 -54 -75 -80 -160 -136 -80 -55 -151 -151 -249 -338 -43 -82 -92 -175 -110 -205 -40 -68 -44 -83 -55 -234 -5 -66 -14 -159 -19 -206 -5 -47 -6 -114 -2 -150 3 -36 4 -96 1 -135 l-5 -69 -40 -12 c-31 -9 -50 -8 -87 3 -46 13 -47 13 -105 -22 -66 -39 -96 -86 -108 -168 -6 -39 -13 -50 -41 -68 -18 -11 -42 -31 -53 -45 -30 -38 -71 -41 -119 -9 l-41 27 -45 -35 c-25 -19 -63 -38 -83 -42 -20 -3 -56 -23 -80 -42 -40 -33 -43 -39 -43 -85 0 -28 10 -81 21 -120 l21 -69 -37 -167 c-38 -171 -57 -223 -94 -256 -16 -14 -21 -31 -21 -68 0 -27 -4 -57 -9 -66 -5 -10 -6 -46 -2 -81 l8 -64 -40 -36 c-91 -81 -157 -226 -157 -344 -1 -80 -24 -268 -36 -289 -33 -56 -109 -138 -138 -148 -28 -9 -39 -23 -72 -88 l-39 -78 -278 -198 c-217 -154 -296 -206 -358 -230 -67 -26 -92 -43 -157 -106 -42 -41 -91 -91 -107 -110 -59 -68 -286 -268 -323 -285 -46 -20 -43 -18 -143 -90 -46 -34 -115 -74 -154 -90 -49 -21 -84 -45 -120 -82 -34 -35 -59 -53 -76 -53 -13 0 -33 -7 -43 -15 -11 -8 -38 -15 -61 -15 -50 0 -115 -40 -115 -72 0 -41 -70 -85 -307 -189 l-233 -103 0 -43 c0 -24 3 -43 7 -43 4 0 116 45 249 101 229 95 244 103 294 155 29 30 56 54 61 54 4 0 9 12 11 28 3 25 7 27 51 30 27 2 63 12 80 23 18 10 42 19 55 19 16 0 40 18 73 54 36 40 66 61 116 82 61 26 176 98 228 144 11 10 31 21 45 25 54 17 209 150 360 309 134 141 169 170 247 201 54 22 157 88 373 240 266 187 300 214 309 245 17 56 49 100 81 112 20 6 54 41 99 99 l68 88 16 153 c9 84 18 176 20 203 6 78 59 179 131 247 l60 58 1 122 0 123 37 60 c27 45 44 93 66 190 56 238 57 242 33 322 -36 119 -24 151 60 167 21 3 49 16 64 28 26 20 28 21 57 4 23 -14 41 -16 89 -11 50 6 63 12 87 40 15 18 46 44 68 58 38 24 43 31 49 79 16 114 71 169 149 149 34 -8 55 -6 118 11 l76 21 7 95 c4 52 5 127 2 166 -6 67 1 196 24 405 8 79 15 104 43 150 18 31 67 121 108 202 106 204 151 264 254 334 51 35 106 83 137 121 29 34 57 63 63 63 5 1 23 -13 40 -30 16 -17 67 -61 114 -99 47 -37 104 -88 127 -112 22 -23 57 -56 77 -71 25 -20 37 -39 42 -65 3 -20 12 -47 20 -59 8 -12 14 -31 14 -42 0 -10 18 -41 40 -67 32 -39 40 -57 40 -88 0 -40 68 -181 143 -297 19 -30 38 -73 41 -95 3 -23 13 -54 21 -70 8 -16 15 -40 15 -54 0 -35 18 -50 59 -50 38 0 81 -22 147 -75 22 -19 66 -46 97 -61 53 -26 56 -29 40 -46 -9 -10 -24 -18 -34 -18 -11 0 -25 -14 -35 -36 -9 -19 -52 -71 -95 -115 -44 -45 -79 -83 -79 -86 0 -3 -13 -21 -30 -40 -16 -18 -30 -38 -30 -44 0 -6 -6 -17 -14 -24 -7 -8 -16 -38 -20 -67 -9 -69 -54 -241 -78 -296 -10 -24 -18 -56 -18 -72 0 -16 -5 -41 -11 -57 -17 -43 -32 -176 -34 -308 -1 -70 -8 -147 -17 -185 -10 -38 -19 -138 -23 -240 -5 -114 -13 -189 -22 -215 -27 -73 -27 -99 1 -143 23 -37 26 -54 32 -181 l7 -139 -55 -64 c-30 -35 -71 -92 -91 -128 -29 -52 -44 -68 -71 -78 -55 -20 -76 -59 -91 -170 -9 -68 -23 -121 -48 -177 -19 -44 -45 -111 -57 -150 -52 -162 -99 -240 -244 -408 -76 -87 -141 -170 -147 -183 -5 -14 -9 -74 -9 -133 0 -126 -9 -157 -78 -275 -27 -45 -77 -150 -112 -233 l-64 -150 -125 -80 c-69 -44 -175 -106 -236 -138 -60 -32 -136 -76 -167 -97 -31 -21 -61 -38 -67 -38 -5 0 -42 17 -81 39 l-72 39 -73 -19 -74 -19 -408 154 c-224 85 -545 211 -713 279 -279 114 -314 126 -405 137 l-100 13 -125 92 c-69 51 -143 98 -165 105 -22 7 -56 26 -76 42 -54 43 -128 49 -195 15 -48 -25 -51 -28 -88 -122 -31 -77 -45 -101 -72 -118 -25 -17 -40 -39 -61 -95 l-28 -73 -114 -77 c-106 -72 -118 -83 -172 -166 -40 -60 -59 -99 -59 -120 0 -30 -9 -36 -230 -169 l-230 -138 0 -750 0 -749 5085 0 5085 0 0 1463 0 1462 -92 92 c-75 73 -122 109 -238 178 -80 48 -157 96 -172 106 -14 11 -32 19 -39 19 -7 0 -36 18 -65 40 -29 22 -62 40 -74 40 -11 0 -20 5 -20 10 0 6 -10 10 -22 10 -12 0 -29 7 -39 16 -17 15 -22 15 -64 -2 -31 -13 -45 -25 -45 -38 0 -10 -10 -34 -21 -53 l-21 -34 -27 29 c-14 16 -45 37 -68 45 -41 16 -41 16 -58 -9 -22 -34 -58 -25 -105 26 -44 48 -94 65 -147 51 -53 -15 -63 -14 -63 9 0 15 -7 20 -28 20 -34 0 -52 -16 -52 -47 0 -13 -4 -23 -10 -23 -5 0 -10 13 -10 29 0 21 -13 40 -50 75 -41 38 -53 58 -67 107 -13 46 -23 64 -43 74 -15 8 -53 54 -86 104 -49 76 -63 91 -85 91 -17 0 -28 6 -32 18 -2 11 -17 21 -35 25 -23 5 -32 13 -37 35 -5 24 -14 31 -58 45 -53 17 -53 17 -64 71 -16 78 -37 106 -79 106 -22 0 -38 7 -48 21 -12 18 -21 20 -49 15 -22 -4 -47 -1 -73 10 -21 10 -52 16 -68 15 -16 -1 -37 1 -47 4 -24 8 -139 150 -139 171 0 9 -13 32 -30 51 -18 20 -30 45 -30 61 0 15 -9 45 -20 67 -11 22 -20 52 -20 68 0 33 52 148 75 167 11 9 15 32 15 84 0 64 -3 75 -25 96 -14 13 -25 31 -25 40 0 10 -22 52 -50 94 -28 43 -47 82 -44 91 4 8 -11 36 -35 66 -23 29 -44 64 -47 78 -4 14 -35 71 -70 127 -35 55 -64 106 -64 112 0 7 -7 12 -15 12 -8 0 -17 12 -20 28 -3 15 -22 58 -41 95 -24 46 -34 77 -31 95 4 19 -5 39 -32 76 -21 29 -41 68 -44 90 -5 28 -19 53 -51 85 -43 45 -136 212 -136 244 0 9 -16 34 -35 56 -24 26 -35 48 -35 69 0 25 -15 44 -100 121 -55 50 -107 91 -115 91 -8 0 -27 14 -42 31 -15 17 -62 48 -105 70 -84 44 -342 255 -353 288 -3 11 -21 29 -39 41 -20 12 -36 31 -39 48 -5 20 -25 39 -84 77 -43 27 -100 74 -127 103 -27 29 -55 51 -61 48 -7 -2 -59 38 -117 89 -57 51 -122 104 -144 117 -21 14 -61 45 -89 69 -56 49 -117 81 -139 73 -8 -3 -49 11 -93 31 -76 37 -99 44 -214 68 -31 7 -74 24 -96 39 -35 23 -54 27 -144 32 -71 4 -114 2 -135 -7z" fill="#ffffff"/>
</g>
</svg>