<svg xmlns="http://www.w3.org/2000/svg" version="1.0" width="1280.000000pt" height="1024.000000pt" viewBox="0 0 1280.000000 1024.000000" preserveAspectRatio="xMidYMid meet">
<metadata fill="#ffffff">
Created by potrace 1.16, written by Peter Selinger 2001-2019
</metadata>
<g transform="translate(0.000000,1024.000000) scale(0.100000,-0.100000)" fill="#ffffff" stroke="none">
<path d="M7855 10225 c-55 -7 -532 -66 -1060 -129 -528 -64 -991 -121 -1030 -127 -208 -33 -404 -132 -551 -277 -38 -37 -209 -250 -381 -472 l-311 -405 -169 -75 -168 -75 -57 57 c-63 64 -111 91 -195 113 -136 36 -245 12 -423 -91 -351 -203 -672 -456 -975 -766 -346 -353 -592 -702 -810 -1143 -113 -231 -173 -375 -245 -595 -131 -396 -229 -937 -191 -1052 14 -44 82 -123 122 -144 17 -8 116 -35 222 -60 203 -49 244 -51 310 -18 66 34 103 82 158 208 233 536 560 1016 969 1426 221 222 423 391 660 553 l84 57 16 -29 c26 -50 105 -146 151 -183 24 -19 121 -85 215 -145 265 -170 487 -324 477 -332 -4 -4 -163 -77 -353 -161 -190 -85 -361 -164 -381 -176 -55 -34 -126 -119 -151 -182 -18 -45 -22 -77 -23 -152 0 -86 3 -101 32 -162 75 -159 254 -255 409 -219 27 6 359 81 738 166 l689 155 66 -57 c287 -249 754 -711 983 -973 348 -399 535 -649 910 -1217 788 -1193 1587 -2182 2508 -3103 333 -334 363 -358 502 -407 98 -35 270 -43 383 -18 227 50 414 215 497 437 26 70 32 101 36 201 5 132 -5 203 -44 298 -41 101 -88 163 -258 339 -521 542 -1003 1135 -1395 1720 -267 397 -434 679 -853 1440 -482 874 -715 1252 -1104 1786 l-103 141 19 52 c11 28 20 71 20 95 l0 44 183 7 c371 15 788 -23 1217 -111 142 -30 189 -35 248 -31 164 12 311 129 358 284 22 72 19 198 -6 265 -45 120 -132 209 -242 248 -123 43 -574 122 -858 150 -313 31 -821 31 -1112 0 -51 -5 -100 -10 -110 -10 -10 0 -25 19 -39 47 -27 57 -84 114 -141 145 -36 19 -58 23 -143 23 -99 0 -101 0 -213 -52 l-112 -52 -248 247 c-212 212 -407 395 -630 594 l-53 47 42 83 c58 112 174 230 276 281 148 73 111 71 1174 59 524 -5 967 -6 992 -1 243 45 377 290 294 534 -70 202 -263 704 -283 737 -36 56 -99 112 -162 144 -51 25 -69 28 -167 30 -60 1 -155 -4 -210 -11z m304 -181 c33 -17 62 -41 78 -65 14 -21 86 -201 159 -398 100 -268 134 -371 134 -406 0 -56 -32 -126 -74 -162 -66 -56 -55 -55 -615 -51 -284 2 -739 3 -1011 3 -483 0 -497 -1 -560 -22 -35 -12 -65 -21 -66 -20 -5 5 -123 271 -121 272 1 1 412 7 914 13 893 12 913 12 969 33 73 28 136 90 163 165 36 95 30 133 -63 407 -46 136 -81 249 -78 252 3 3 31 5 62 5 40 0 71 -7 109 -26z m-265 -269 c86 -257 88 -266 75 -301 -8 -20 -27 -46 -42 -58 -27 -20 -44 -21 -365 -27 -185 -4 -613 -8 -950 -10 l-613 -4 -94 209 c-52 115 -93 211 -91 214 3 2 263 35 578 74 315 38 749 91 963 118 215 26 404 48 420 49 l30 1 89 -265z m-2040 -504 l196 -434 -23 -16 c-80 -55 -188 -184 -237 -281 -12 -25 -24 -47 -26 -48 -1 -2 -18 9 -38 24 -21 17 -105 138 -217 315 -178 279 -202 310 -247 308 -9 0 -100 -37 -202 -83 -102 -46 -186 -82 -188 -81 -4 4 355 470 421 547 63 74 161 148 262 198 l80 40 12 -28 c6 -15 99 -222 207 -461z m-492 -534 c70 -111 124 -205 120 -209 -9 -9 -1619 -728 -1629 -728 -8 1 -264 402 -259 407 4 4 1630 732 1636 732 3 0 62 -91 132 -202z m-1466 -72 c46 -13 125 -67 114 -78 -3 -2 -139 -64 -302 -136 -163 -73 -305 -142 -314 -152 -39 -43 -26 -73 160 -364 l176 -276 10 -107 c17 -181 20 -169 -68 -227 -112 -72 -330 -238 -462 -351 -505 -434 -948 -1023 -1218 -1621 -92 -203 -92 -202 -124 -226 l-28 -21 -152 39 c-252 63 -249 60 -229 218 43 351 145 742 281 1083 351 879 986 1620 1820 2124 180 109 236 125 336 95z m1899 -441 c345 -301 868 -806 850 -822 -7 -6 -1181 -532 -1752 -785 -18 -8 -39 2 -135 70 -110 78 -374 254 -569 380 -53 34 -116 84 -141 111 -92 104 -141 239 -136 379 l3 75 120 54 c1324 594 1571 702 1585 690 8 -7 87 -75 175 -152z m1425 -819 c16 -8 37 -27 47 -42 27 -40 352 -764 359 -801 8 -41 -26 -112 -65 -135 -16 -10 -135 -42 -263 -72 -128 -30 -651 -151 -1163 -270 -511 -119 -1162 -270 -1445 -336 -551 -129 -560 -130 -640 -89 -47 24 -96 87 -111 144 -21 78 17 178 87 226 48 32 3114 1389 3142 1389 13 1 36 -6 52 -14z m839 -202 c0 -16 -15 -122 -32 -238 l-33 -210 -39 -7 c-22 -4 -78 -7 -125 -7 l-86 -1 -99 222 c-55 122 -101 225 -103 229 -7 16 201 35 406 38 l112 1 -1 -27z m602 7 c157 -16 413 -51 421 -58 6 -7 -59 -462 -67 -470 -2 -2 -73 5 -157 17 -185 25 -333 38 -535 47 -84 4 -153 8 -153 10 0 1 16 107 35 235 19 129 35 235 35 238 0 6 301 -7 421 -19z m724 -115 c160 -38 209 -71 250 -168 56 -135 -42 -299 -193 -323 -42 -7 -252 33 -252 48 0 11 59 406 66 441 3 15 10 27 15 27 5 0 56 -11 114 -25z m-1642 -990 c160 -219 454 -666 610 -926 130 -217 222 -381 614 -1089 423 -763 725 -1236 1115 -1748 l109 -142 -68 -31 c-486 -219 -961 -429 -969 -428 -11 0 -48 45 -295 354 -434 542 -713 928 -1181 1635 -350 529 -627 888 -992 1288 -174 190 -569 581 -729 721 -59 52 -105 97 -102 99 8 9 1739 420 1759 419 12 -1 59 -58 129 -152z m2692 -4204 c224 -270 412 -480 700 -781 128 -134 173 -203 200 -305 59 -229 -58 -480 -272 -587 -92 -46 -166 -62 -268 -56 -92 6 -157 26 -235 73 -103 63 -749 731 -1159 1200 l-131 150 37 17 c212 96 998 446 999 445 1 -1 59 -71 129 -156z" fill="#ffffff"/>
<path d="M3015 7935 c-61 -23 -142 -89 -245 -200 -363 -392 -637 -854 -805 -1360 -68 -202 -128 -445 -119 -480 13 -54 85 -82 130 -51 11 8 57 77 103 153 283 475 688 904 1126 1194 66 43 139 92 162 109 121 87 171 272 114 422 -29 76 -103 156 -178 193 -50 25 -72 29 -153 32 -66 2 -107 -2 -135 -12z m200 -174 c76 -35 115 -95 115 -177 0 -129 -136 -225 -255 -180 -83 32 -146 131 -131 208 24 128 158 201 271 149z m-411 -329 c23 -55 90 -130 141 -158 19 -10 35 -21 34 -24 0 -3 -48 -42 -107 -87 -228 -175 -465 -411 -665 -663 l-27 -35 31 75 c89 216 216 453 345 643 75 110 215 296 224 297 3 0 14 -21 24 -48z" fill="#ffffff"/>
<path d="M4846 7738 c-92 -25 -150 -133 -125 -233 20 -79 105 -145 185 -145 71 0 145 49 175 115 48 106 -9 234 -119 265 -44 12 -64 11 -116 -2z" fill="#ffffff"/>
<path d="M6912 6969 c-124 -63 -136 -250 -21 -326 72 -47 175 -43 235 9 49 43 67 83 67 149 0 66 -20 108 -76 152 -51 42 -141 49 -205 16z" fill="#ffffff"/>
<path d="M5570 6549 c-33 -13 -78 -57 -98 -94 -20 -39 -20 -131 0 -170 54 -102 190 -136 286 -73 115 76 105 265 -18 328 -43 22 -126 26 -170 9z" fill="#ffffff"/>
<path d="M10695 896 c-58 -25 -115 -112 -115 -176 0 -65 58 -152 117 -176 80 -34 189 -4 236 64 69 99 29 243 -80 288 -41 17 -119 17 -158 0z" fill="#ffffff"/>
</g>
</svg>