<svg xmlns="http://www.w3.org/2000/svg" version="1.0" width="1147.000000pt" height="918.000000pt" viewBox="0 0 1147.000000 918.000000" preserveAspectRatio="xMidYMid meet">
<metadata fill="#ffffff">
Created by potrace 1.16, written by Peter Selinger 2001-2019
</metadata>
<g transform="translate(0.000000,918.000000) scale(0.100000,-0.100000)" fill="#ffffff" stroke="none">
<path d="M9064 8870 c-14 -6 -111 -175 -308 -541 -245 -455 -287 -537 -284 -568 2 -27 9 -39 30 -49 20 -9 28 -22 33 -52 4 -22 20 -67 37 -100 37 -75 81 -107 206 -150 121 -42 229 -106 349 -205 196 -163 263 -244 284 -344 20 -99 120 -174 316 -237 59 -19 111 -34 116 -34 5 0 23 -6 40 -14 18 -8 41 -17 52 -21 19 -7 18 -8 -5 -15 -35 -11 -128 -11 -172 -1 -21 5 -38 7 -38 5 0 -2 13 -28 29 -57 37 -65 50 -114 53 -199 1 -38 4 -68 6 -68 8 0 212 179 260 230 114 117 165 218 166 324 0 62 -4 79 -34 134 -81 152 -315 316 -703 492 -177 80 -270 130 -360 191 -230 156 -268 219 -289 479 l-10 135 157 290 c98 181 158 301 158 319 0 19 -8 36 -22 48 -25 20 -35 21 -67 8z" fill="#ffffff"/>
<path d="M8305 8613 c-217 -27 -424 -97 -850 -285 -453 -201 -976 -404 -1500 -581 -404 -137 -502 -175 -776 -308 -231 -111 -256 -121 -435 -168 -255 -66 -341 -101 -414 -167 -71 -65 -71 -64 15 -411 42 -170 87 -375 101 -458 45 -276 69 -351 149 -457 25 -33 48 -71 51 -83 7 -28 93 -70 179 -87 106 -21 176 8 345 142 189 150 341 236 772 438 492 232 610 306 1071 675 416 333 480 372 1099 670 l197 95 30 61 c27 53 39 91 27 91 -2 0 -38 -16 -80 -36 -42 -19 -148 -55 -234 -80 -190 -54 -299 -92 -542 -189 -166 -67 -375 -133 -386 -123 -6 7 547 262 655 303 51 19 157 53 235 76 203 58 279 87 318 119 35 29 35 29 42 137 22 341 38 459 82 611 6 21 4 22 -57 21 -35 -1 -77 -4 -94 -6z m-1546 -1099 c-88 -92 -248 -174 -554 -284 -118 -42 -260 -103 -345 -146 -80 -41 -255 -129 -390 -195 -135 -67 -355 -179 -490 -249 -135 -71 -296 -152 -358 -181 -129 -60 -128 -60 -136 36 -25 307 -31 336 -75 367 -18 13 -18 15 5 58 22 41 24 36 9 -19 -4 -12 3 -24 19 -34 36 -24 64 -110 81 -249 8 -66 17 -123 19 -126 6 -5 200 96 476 248 113 62 257 137 320 167 63 30 230 112 371 182 221 110 284 137 465 195 115 37 241 79 279 93 84 31 246 112 295 147 48 34 50 32 9 -10z m280 -436 c-93 -110 -301 -273 -504 -395 -126 -76 -220 -123 -415 -208 -209 -91 -240 -108 -420 -219 -191 -119 -345 -199 -560 -289 -286 -121 -309 -127 -384 -106 -88 24 -112 100 -57 177 42 57 52 59 24 5 -33 -66 -31 -108 7 -128 16 -8 50 -15 76 -15 48 0 58 4 469 200 118 56 234 122 410 234 118 76 270 152 474 238 297 125 591 298 820 482 52 42 97 76 99 76 2 0 -16 -23 -39 -52z" fill="#ffffff"/>
<path d="M8566 8523 c-4 -9 -11 -67 -17 -128 -5 -60 -14 -154 -19 -208 -16 -161 -16 -163 36 -72 26 44 83 142 127 219 l80 138 -18 34 -18 34 -83 0 c-68 0 -83 -3 -88 -17z" fill="#ffffff"/>
<path d="M8417 7518 c-3 -7 -55 -137 -117 -288 -120 -299 -210 -490 -288 -615 l-50 -79 92 -19 c173 -35 340 -119 469 -238 l68 -62 35 34 c29 28 34 40 34 78 0 26 9 125 20 221 40 350 37 541 -11 694 -17 56 -23 64 -70 91 -57 33 -121 101 -150 158 -21 41 -24 43 -32 25z" fill="#ffffff"/>
<path d="M7915 7271 c-405 -205 -464 -243 -820 -525 -404 -321 -530 -400 -988 -625 -467 -228 -635 -327 -885 -518 -168 -129 -211 -148 -332 -147 -92 0 -127 9 -241 58 -11 5 -23 -5 -43 -35 -52 -77 -110 -131 -336 -308 -462 -361 -622 -511 -845 -792 -190 -239 -306 -368 -494 -552 -89 -86 -161 -159 -161 -162 0 -9 155 -5 209 5 74 14 108 52 264 290 58 89 194 231 307 320 86 69 209 149 475 310 121 73 231 140 245 148 20 13 18 8 -10 -22 -44 -47 -160 -134 -407 -305 -321 -222 -456 -346 -580 -536 -36 -55 -75 -110 -86 -122 -11 -13 -18 -25 -15 -29 3 -3 75 21 159 54 287 111 446 149 719 172 165 14 221 29 436 116 236 95 296 111 489 129 181 16 221 28 380 107 142 71 182 83 345 108 184 28 237 43 367 103 78 36 113 58 117 72 9 36 74 102 121 124 24 11 63 21 85 21 22 0 40 1 40 3 0 1 -10 27 -22 57 -28 70 -30 221 -5 289 15 39 16 48 2 96 -26 88 6 178 99 282 26 29 46 62 50 84 18 99 104 212 192 254 35 16 36 19 30 58 -3 23 -6 87 -8 141 l-2 99 40 35 c75 65 248 174 378 237 197 97 345 141 566 170 43 6 47 9 94 83 70 107 129 217 183 336 63 140 185 447 181 457 -2 4 -133 -58 -293 -140z m-1300 -1216 c-16 -14 -111 -66 -210 -116 -327 -166 -470 -251 -643 -382 -51 -38 -95 -67 -98 -65 -8 9 69 100 142 167 97 89 239 180 395 255 161 76 373 156 439 165 3 0 -8 -11 -25 -24z m-917 -905 c-29 -40 -137 -129 -348 -287 -96 -72 -204 -156 -240 -187 -36 -30 -66 -51 -68 -46 -7 20 73 122 155 200 51 48 150 124 242 185 132 87 263 165 278 165 2 0 -6 -14 -19 -30z" fill="#ffffff"/>
<path d="M4100 6737 c-110 -164 -349 -376 -605 -538 -55 -34 -224 -134 -375 -222 -441 -255 -499 -296 -845 -593 -277 -238 -394 -326 -587 -440 -84 -50 -230 -137 -324 -193 -223 -132 -424 -281 -424 -314 0 -6 17 -37 38 -71 65 -102 162 -285 199 -375 42 -102 60 -130 87 -141 29 -11 63 4 114 52 48 44 157 98 237 117 267 66 561 -3 805 -188 49 -37 110 -79 134 -92 l44 -23 49 39 c81 67 340 324 447 445 56 63 163 195 239 293 216 278 379 429 844 778 267 201 316 255 317 349 1 38 -7 57 -50 122 -62 92 -76 131 -109 312 -30 163 -164 748 -173 758 -4 3 -32 -30 -62 -75z m-330 -1604 c-12 -16 -97 -107 -189 -203 -152 -159 -405 -441 -635 -708 -158 -183 -278 -272 -367 -272 -32 0 -43 6 -70 39 -17 22 -58 58 -91 81 -116 82 -229 103 -498 95 -182 -6 -298 -24 -364 -56 -22 -10 -42 -16 -45 -13 -3 3 -6 60 -6 127 0 113 2 126 27 173 33 62 122 146 258 243 121 86 340 250 420 316 30 25 82 64 115 87 l60 41 -70 -72 c-82 -85 -232 -212 -440 -376 -263 -205 -305 -258 -305 -383 0 -52 1 -54 23 -48 142 39 534 53 659 23 98 -24 201 -79 269 -145 64 -63 67 -64 149 -22 48 24 179 152 324 315 177 199 435 462 610 622 98 90 181 163 183 163 2 0 -5 -12 -17 -27z" fill="#ffffff"/>
<path d="M9184 6543 c-72 -49 -164 -115 -205 -147 -85 -69 -289 -271 -289 -287 0 -6 15 -37 34 -68 128 -212 134 -487 17 -737 l-39 -83 19 -88 c31 -138 35 -237 13 -308 l-18 -60 -7 85 c-7 78 -41 237 -58 267 -10 19 -84 -83 -77 -105 18 -57 25 -184 16 -285 -14 -143 -26 -165 -34 -61 -12 134 -27 266 -35 286 -6 17 -10 15 -41 -17 -39 -41 -36 3 -30 -360 3 -148 1 -180 -18 -247 -21 -78 -53 -138 -90 -171 -19 -18 -19 -16 3 40 47 116 56 270 30 497 -8 71 -17 131 -18 133 -2 2 -42 -20 -88 -47 -80 -48 -84 -53 -91 -93 -3 -23 -7 -80 -7 -127 -1 -111 -25 -263 -51 -330 -48 -122 -139 -201 -238 -208 -86 -6 -147 22 -302 140 -75 56 -167 116 -209 136 -84 39 -267 98 -808 261 -164 50 -226 39 -252 -44 -18 -55 -9 -49 -191 -129 -159 -69 -197 -81 -306 -100 -133 -23 -324 -77 -324 -92 0 -2 23 -25 51 -51 67 -62 154 -169 214 -262 82 -126 144 -338 160 -544 l7 -88 82 6 c44 4 122 1 171 -5 150 -19 185 -23 185 -18 0 2 -23 28 -51 58 -131 140 -214 313 -207 432 4 57 8 53 32 -32 20 -70 96 -201 165 -284 72 -86 171 -166 206 -166 l27 0 -32 38 c-99 118 -175 272 -204 414 -18 85 -21 152 -7 144 5 -3 26 -50 46 -103 84 -219 207 -420 297 -484 28 -20 44 -24 105 -23 98 1 137 23 179 98 46 83 60 160 46 251 -25 162 -100 293 -337 588 -75 92 -33 66 89 -55 135 -136 201 -223 260 -343 55 -110 71 -188 63 -303 l-6 -87 40 45 c40 44 40 44 34 15 -6 -31 -24 -60 -108 -185 -27 -40 -47 -73 -45 -75 2 -2 50 1 108 6 58 5 182 7 275 3 257 -9 432 14 590 80 l40 16 -39 -35 c-49 -44 -125 -80 -224 -107 -68 -18 -121 -22 -447 -29 -203 -5 -390 -12 -415 -17 l-45 -8 55 -21 c150 -57 367 -79 615 -61 97 7 99 7 60 -8 -92 -35 -179 -47 -340 -48 -173 0 -254 14 -400 68 -37 15 -70 25 -72 23 -7 -8 147 -146 217 -196 125 -88 250 -121 453 -121 134 0 253 17 392 54 50 13 91 23 93 22 7 -7 -138 -69 -212 -90 -131 -38 -202 -49 -326 -49 -188 -1 -318 37 -448 130 -138 98 -244 204 -300 298 -4 7 -31 15 -59 19 -51 6 -53 6 -53 -17 0 -46 40 -183 74 -252 41 -82 84 -135 170 -208 62 -53 65 -54 167 -71 170 -27 307 -34 644 -32 356 3 389 8 496 76 58 38 87 88 143 249 31 89 37 121 46 251 11 176 27 231 115 404 241 473 383 739 455 856 46 74 98 159 116 189 39 62 74 163 108 312 51 218 83 282 278 577 l128 193 0 73 c0 166 -65 317 -205 478 -30 34 -52 64 -50 66 10 10 105 -57 161 -114 70 -70 135 -189 155 -281 l12 -58 13 32 c15 35 6 103 -41 328 -14 66 -24 140 -24 165 l1 45 28 -60 c36 -79 85 -225 100 -303 7 -34 15 -62 19 -62 3 0 19 21 35 46 16 26 53 76 82 111 51 62 53 67 48 111 -13 107 -56 217 -111 282 -30 36 -108 90 -130 90 -8 0 -33 9 -56 21 -23 11 -62 22 -87 25 -43 4 -51 0 -176 -83z m-1844 -2487 c118 -79 310 -172 404 -196 150 -38 278 -23 404 46 34 19 62 31 62 26 0 -15 -85 -89 -127 -110 -156 -80 -320 -68 -538 38 -170 82 -310 188 -391 293 -24 33 -44 63 -44 68 0 5 33 -17 73 -50 39 -32 110 -84 157 -115z m-255 -8 c33 -30 119 -114 190 -187 157 -162 250 -237 352 -288 72 -36 83 -38 167 -38 84 0 96 2 154 34 81 44 172 129 279 258 47 57 88 102 90 99 3 -3 -9 -31 -27 -63 -61 -109 -133 -204 -205 -271 -201 -187 -397 -183 -641 13 -88 71 -149 136 -314 340 -62 77 -120 149 -129 159 -15 18 -15 18 4 8 12 -6 48 -35 80 -64z" fill="#ffffff"/>
<path d="M7700 6389 c-226 -27 -486 -137 -716 -301 -85 -61 -82 -49 -63 -234 30 -297 136 -514 326 -667 214 -172 452 -279 727 -327 l110 -19 50 26 c63 32 158 95 152 101 -3 2 -21 -1 -40 -8 -177 -58 -389 -11 -621 137 -83 53 -208 153 -202 160 3 2 79 -33 170 -80 286 -146 435 -186 591 -154 114 24 254 94 317 160 31 32 146 272 164 342 19 75 19 211 0 294 -38 158 -153 305 -329 422 -185 122 -414 176 -636 148z m-604 -614 c10 -33 59 -140 107 -239 48 -98 86 -181 83 -183 -18 -18 -111 82 -163 175 -60 108 -90 245 -67 307 9 23 17 10 40 -60z" fill="#ffffff"/>
<path d="M6759 5630 c-45 -36 -69 -85 -69 -138 l0 -41 52 19 c29 10 55 17 57 14 8 -8 -35 -47 -116 -105 -81 -59 -123 -109 -123 -146 0 -34 36 -69 95 -93 77 -31 71 -44 -19 -37 l-75 5 -15 -68 c-20 -86 -20 -123 -1 -187 19 -63 85 -139 152 -175 89 -48 314 -88 491 -88 l93 0 44 93 c37 80 65 169 65 211 0 7 -33 35 -72 61 -253 167 -432 399 -495 639 -10 36 -20 66 -23 66 -3 0 -22 -13 -41 -30z" fill="#ffffff"/>
<path d="M7490 4877 c0 -36 -34 -153 -69 -241 -18 -43 -30 -80 -28 -83 8 -7 132 69 170 106 41 38 60 69 83 133 l14 39 -36 15 c-19 8 -57 23 -84 34 l-50 20 0 -23z" fill="#ffffff"/>
<path d="M7714 4794 c-17 -50 -45 -106 -68 -140 -32 -47 -27 -50 79 -59 90 -8 186 10 230 42 24 18 65 82 65 102 0 6 -8 11 -17 11 -16 0 -176 35 -255 55 -22 6 -29 3 -34 -11z" fill="#ffffff"/>
<path d="M7960 4534 c-90 -46 -234 -58 -341 -28 -58 16 -59 16 -124 -10 -36 -14 -73 -26 -83 -26 -40 0 -28 -15 61 -74 51 -34 128 -88 172 -120 100 -73 148 -96 206 -96 37 0 51 5 77 31 48 47 72 123 97 307 6 49 1 50 -65 16z" fill="#ffffff"/>
<path d="M5249 4110 c-37 -10 -145 -30 -241 -44 -209 -31 -282 -50 -408 -104 -228 -97 -364 -128 -701 -161 -129 -12 -235 -45 -472 -145 -270 -115 -402 -150 -562 -149 -178 1 -302 45 -491 176 -188 130 -343 198 -501 219 -151 21 -272 -13 -405 -114 -77 -59 -78 -72 -4 -107 56 -26 139 -38 334 -49 206 -12 217 -23 51 -48 -125 -19 -309 -14 -386 10 -28 9 -75 32 -103 51 -31 21 -64 35 -82 35 -52 0 -96 30 -146 96 -43 58 -48 63 -60 47 -23 -31 -9 -114 33 -199 26 -55 58 -98 109 -149 82 -83 145 -121 274 -166 77 -26 91 -34 76 -42 -27 -15 -132 -11 -183 7 -54 20 -51 20 -51 -7 0 -51 34 -122 80 -168 89 -89 205 -112 426 -84 152 19 382 17 483 -6 84 -18 227 -6 371 31 160 41 291 48 489 26 250 -28 390 -20 821 49 118 18 273 38 343 44 160 14 181 23 85 39 -68 12 -324 85 -335 96 -3 3 12 8 32 12 23 4 87 -1 169 -15 155 -25 252 -27 327 -5 30 9 122 51 206 95 84 43 158 79 165 79 21 0 -53 -69 -137 -129 l-80 -56 210 -12 c116 -7 285 -21 377 -33 201 -24 378 -27 378 -6 0 16 -67 79 -108 100 -16 8 -95 33 -176 55 -81 23 -157 46 -169 53 -21 12 -21 13 13 16 46 5 210 -15 285 -34 33 -8 86 -31 118 -51 32 -19 61 -32 65 -29 12 13 -19 201 -49 290 -36 109 -75 179 -147 266 -85 102 -225 240 -242 239 -8 -1 -45 -9 -81 -19z" fill="#ffffff"/>
<path d="M4672 3095 c-61 -38 -145 -61 -257 -71 -129 -11 -242 -84 -259 -167 -11 -55 5 -97 80 -207 104 -156 106 -160 50 -119 -63 45 -136 123 -172 184 -25 43 -29 61 -29 121 0 62 3 75 29 108 15 20 26 40 23 42 -3 3 -39 0 -80 -7 l-75 -13 -12 -78 c-48 -310 142 -603 640 -988 96 -74 239 -194 317 -267 152 -140 195 -174 282 -218 65 -33 154 -114 188 -172 l25 -43 66 0 c79 0 136 23 175 69 31 37 35 91 16 197 -15 87 -16 90 -60 118 -21 15 -64 48 -93 74 -30 26 -80 66 -112 89 -33 23 -102 79 -154 124 -59 51 -120 93 -160 111 -81 37 -530 259 -530 262 0 4 60 -4 145 -21 124 -24 227 -65 457 -181 117 -59 232 -114 255 -121 42 -14 43 -14 88 23 95 78 187 243 244 434 41 139 125 552 115 562 -5 5 -56 27 -114 50 -58 23 -115 48 -128 56 -37 24 -388 60 -677 69 -99 3 -191 7 -205 9 -15 2 -46 -10 -78 -29z" fill="#ffffff"/>
<path d="M5923 3104 c-13 -3 -23 -9 -23 -14 0 -9 119 -57 220 -88 68 -20 208 -47 215 -40 2 2 1 29 -2 59 l-5 56 -62 12 c-63 13 -304 23 -343 15z" fill="#ffffff"/>
<path d="M2715 2899 c-185 -49 -296 -59 -409 -35 -43 9 -113 16 -156 16 l-77 0 -13 -45 c-23 -83 -3 -140 94 -261 95 -118 127 -191 166 -372 11 -52 32 -120 46 -153 29 -64 94 -132 149 -155 44 -18 155 -18 242 0 82 18 220 26 249 16 11 -5 38 -39 60 -76 22 -39 76 -107 124 -156 69 -70 101 -94 165 -125 75 -36 86 -38 175 -38 113 0 167 21 270 105 64 52 189 120 220 120 38 0 255 154 243 173 -3 5 -33 6 -67 2 -46 -5 -95 -22 -201 -73 l-140 -67 -145 -1 c-135 -2 -151 -4 -232 -33 -49 -17 -95 -31 -103 -31 -9 0 -27 11 -40 25 -21 20 -25 34 -24 77 1 89 14 103 27 29 7 -36 16 -69 21 -74 6 -6 46 6 108 34 l98 43 135 1 135 0 129 65 128 65 89 0 c49 0 89 3 89 7 0 3 -12 17 -27 30 -60 51 -164 171 -214 244 -67 100 -142 257 -172 364 -14 47 -29 85 -33 85 -12 0 -160 -158 -257 -272 -83 -99 -154 -161 -226 -198 -78 -39 -99 -39 -41 0 80 53 150 125 244 250 46 61 115 146 155 190 94 104 117 141 125 193 6 39 4 43 -11 38 -10 -3 -79 -21 -153 -40 -220 -57 -413 -141 -479 -210 -53 -55 -87 -62 -155 -32 -43 19 -62 23 -86 16 -41 -12 -133 -59 -209 -108 -70 -46 -158 -82 -199 -82 -20 0 -8 9 48 36 40 19 115 66 164 104 149 113 211 131 298 87 l46 -23 49 51 c36 39 77 66 161 108 61 31 130 62 152 68 54 16 50 29 -7 29 -27 0 -109 7 -183 15 -74 8 -193 14 -265 14 -119 0 -142 -3 -280 -40z" fill="#ffffff"/>
<path d="M6016 2869 c-3 -8 -28 -119 -56 -248 -28 -129 -67 -282 -87 -340 -46 -139 -119 -280 -189 -365 -31 -37 -54 -69 -52 -71 6 -6 114 27 166 50 67 31 151 110 204 194 23 36 72 129 109 206 67 139 118 229 119 210 1 -29 -98 -303 -140 -390 -96 -197 -213 -294 -402 -336 -32 -7 -58 -15 -58 -19 0 -15 99 -77 165 -103 39 -15 123 -51 188 -79 65 -27 121 -48 123 -45 3 3 12 35 19 71 8 36 35 117 61 179 25 61 62 150 81 197 l34 85 -6 -62 c-3 -34 -26 -127 -52 -205 -31 -98 -47 -167 -50 -218 -5 -75 -5 -75 32 -117 20 -24 41 -43 45 -43 13 0 86 154 107 225 15 51 18 105 19 345 1 157 3 301 4 320 l2 35 9 -35 c24 -100 52 -347 52 -475 1 -179 -11 -237 -73 -360 -28 -55 -50 -103 -50 -106 0 -4 25 -25 56 -49 42 -32 58 -39 69 -30 24 20 124 234 159 342 64 195 71 371 20 513 -52 146 -68 217 -68 316 l-1 96 -50 55 c-27 30 -68 86 -90 125 l-39 71 -76 7 c-63 6 -174 30 -277 61 -15 4 -24 2 -27 -7z" fill="#ffffff"/>
<path d="M8208 2598 c-51 -49 -83 -98 -97 -148 -8 -25 -27 -72 -43 -104 l-30 -59 82 7 c88 7 155 33 164 63 2 10 8 49 12 88 4 38 13 84 20 102 19 45 18 53 -10 53 -13 0 -29 7 -36 15 -18 21 -24 19 -62 -17z" fill="#ffffff"/>
<path d="M6735 2393 c22 -93 120 -208 228 -272 135 -79 471 -209 562 -218 77 -7 132 16 198 81 38 39 91 125 83 134 -2 2 -38 -4 -80 -12 -273 -57 -567 25 -893 250 -51 35 -96 64 -99 64 -3 0 -3 -12 1 -27z" fill="#ffffff"/>
<path d="M7925 2402 c-40 -13 -129 -17 -460 -21 l-410 -6 85 -42 c244 -120 489 -134 711 -43 80 33 104 51 125 92 23 44 24 43 -51 20z" fill="#ffffff"/>
<path d="M8015 2164 c-21 -8 -42 -19 -46 -25 -3 -6 0 -32 7 -58 31 -106 232 -231 371 -231 30 0 43 4 43 14 0 29 -104 169 -162 217 -55 45 -146 100 -165 98 -4 0 -26 -7 -48 -15z" fill="#ffffff"/>
<path d="M6820 1953 c0 -212 -69 -453 -194 -671 -44 -78 -44 -77 119 -76 146 2 268 31 410 98 233 110 373 257 404 423 l8 43 -41 0 c-97 1 -230 42 -450 141 -60 27 -111 47 -114 44 -18 -18 136 -189 241 -267 37 -28 66 -52 64 -55 -8 -7 -114 38 -161 69 -26 17 -72 53 -102 80 l-54 50 0 -63 c-1 -93 -24 -207 -54 -266 -36 -73 -46 -73 -29 0 28 117 1 503 -37 541 -7 7 -10 -26 -10 -91z" fill="#ffffff"/>
<path d="M7825 1913 c-21 -24 -56 -57 -77 -71 -35 -25 -38 -31 -38 -76 0 -45 4 -52 50 -99 l50 -49 117 7 c105 6 116 6 105 -8 -22 -26 -143 -69 -194 -69 -49 0 -81 14 -128 58 l-26 24 -28 -57 c-15 -31 -48 -83 -73 -115 -44 -55 -45 -60 -32 -84 65 -123 326 -108 562 33 97 57 220 176 260 251 l28 52 -53 0 c-134 0 -287 68 -398 177 -41 40 -77 73 -80 72 -3 0 -23 -21 -45 -46z" fill="#ffffff"/>
<path d="M4465 1756 c-33 -13 -83 -35 -111 -49 -53 -27 -114 -87 -114 -113 0 -65 106 -139 326 -228 88 -35 233 -100 324 -144 187 -90 300 -132 358 -132 48 0 58 17 38 64 -21 52 -88 108 -201 171 -122 68 -177 112 -271 213 -59 65 -268 243 -283 242 -3 -1 -33 -11 -66 -24z" fill="#ffffff"/>
<path d="M5790 1289 c-46 -128 -151 -191 -317 -193 -51 -1 -93 -5 -93 -9 0 -21 59 -88 95 -109 97 -56 384 1 436 86 22 36 24 86 5 139 -15 40 -85 147 -96 147 -4 0 -17 -28 -30 -61z" fill="#ffffff"/>
<path d="M7345 1303 c-78 -51 -223 -121 -302 -147 -29 -10 -53 -21 -53 -26 0 -15 98 -126 144 -164 58 -47 142 -86 187 -86 45 0 96 33 123 80 33 55 36 218 6 311 -13 38 -26 71 -29 73 -4 3 -38 -16 -76 -41z" fill="#ffffff"/>
<path d="M7441 862 c-41 -34 -48 -37 -110 -37 -36 0 -80 4 -98 8 l-31 8 9 -43 c16 -69 42 -111 93 -145 39 -26 58 -33 98 -33 28 0 64 7 82 15 80 38 89 153 18 242 l-17 21 -44 -36z" fill="#ffffff"/>
</g>
</svg>