<svg xmlns="http://www.w3.org/2000/svg" version="1.0" width="1251.000000pt" height="1001.000000pt" viewBox="0 0 1251.000000 1001.000000" preserveAspectRatio="xMidYMid meet">
<metadata fill="#ffffff">
Created by potrace 1.16, written by Peter Selinger 2001-2019
</metadata>
<g transform="translate(0.000000,1001.000000) scale(0.100000,-0.100000)" fill="#ffffff" stroke="none">
<path d="M4701 9613 l-274 -205 6 -77 c3 -42 31 -572 63 -1179 32 -607 61 -1107 64 -1113 4 -5 168 -13 394 -18 213 -5 390 -11 392 -14 3 -2 15 -125 27 -273 l23 -269 -97 -160 c-52 -88 -131 -216 -174 -285 -163 -260 -201 -371 -230 -680 -40 -434 -91 -713 -193 -1065 -53 -184 -55 -195 -60 -336 -5 -168 7 -280 73 -689 24 -151 49 -318 56 -370 20 -171 94 -351 203 -490 74 -94 164 -237 186 -298 14 -37 25 -98 31 -172 24 -297 107 -767 286 -1612 3 -15 14 -30 24 -33 35 -11 474 -8 564 4 411 55 784 213 1093 463 214 173 400 406 518 650 l27 56 -41 139 c-46 155 -72 282 -72 352 0 28 16 94 40 166 82 243 304 979 510 1695 71 243 80 316 56 428 -22 106 -68 190 -153 283 -88 95 -152 192 -257 384 -71 131 -77 148 -96 255 -12 63 -32 164 -47 224 l-25 109 37 96 c21 53 57 135 81 182 62 126 77 185 72 293 -3 76 -9 102 -35 157 -59 127 -140 193 -388 317 -169 84 -266 148 -308 204 -14 18 -44 73 -66 121 -49 107 -98 182 -167 257 l-53 56 -96 1084 c-53 597 -98 1086 -100 1088 -7 7 -700 262 -713 262 -7 0 -53 -20 -103 -45 l-90 -46 -327 142 c-180 78 -341 148 -357 155 -30 12 -32 11 -304 -193z m531 -120 c265 -114 259 -93 57 -194 -111 -54 -129 -67 -125 -84 8 -35 19 -245 12 -245 -3 0 -74 11 -158 25 -83 14 -153 24 -154 22 -9 -9 -31 -183 -23 -187 4 -3 87 -19 184 -34 96 -16 175 -31 176 -35 3 -23 26 -286 25 -287 -1 0 -92 8 -204 19 -111 11 -205 18 -208 15 -5 -6 -26 -179 -22 -184 2 -1 102 -12 223 -24 121 -12 222 -24 223 -25 2 -2 6 -22 9 -44 l6 -41 -182 0 -181 0 0 -95 0 -95 188 0 189 0 11 -137 c7 -75 9 -140 4 -144 -4 -3 -117 -28 -252 -54 -135 -26 -246 -49 -247 -49 -4 -2 35 -178 41 -184 5 -5 383 64 467 85 13 4 17 -16 27 -134 7 -77 12 -147 12 -158 0 -17 -12 -18 -291 -12 -160 3 -293 7 -295 9 -2 3 -29 474 -60 1047 -53 1004 -55 1044 -37 1056 10 7 92 69 183 138 91 69 167 126 170 127 3 0 107 -43 232 -97z m844 -169 c98 -37 182 -69 186 -73 4 -4 -75 -54 -177 -113 l-184 -106 -195 76 c-108 43 -196 79 -196 82 0 5 369 198 381 199 3 1 86 -29 185 -65z m425 -1090 c42 -472 80 -893 83 -935 l7 -75 -59 -17 c-33 -9 -79 -31 -102 -49 -143 -110 -171 -386 -68 -676 56 -160 111 -253 242 -407 42 -49 76 -98 76 -107 0 -24 -32 -103 -93 -226 -29 -59 -60 -125 -69 -148 -23 -53 -154 -195 -161 -174 -5 13 -333 3322 -340 3418 -2 32 0 33 193 146 107 63 200 113 205 112 6 -2 42 -362 86 -862z m-901 705 c113 -44 208 -83 212 -87 4 -4 63 -576 132 -1272 69 -696 128 -1285 130 -1310 l5 -45 -13 45 c-40 136 -118 269 -195 329 -69 55 -125 74 -200 69 -36 -3 -73 -8 -81 -12 -13 -5 -28 148 -113 1166 -54 645 -98 1179 -97 1186 0 6 3 12 8 12 4 0 99 -36 212 -81z m1077 -1938 c42 -26 81 -85 160 -243 102 -203 166 -259 479 -416 239 -121 298 -182 299 -312 0 -77 -26 -144 -53 -136 -148 43 -256 56 -481 56 l-201 0 0 33 c0 46 -40 121 -106 197 -167 193 -239 337 -274 548 -19 117 5 244 53 277 30 21 86 19 124 -4z m-958 -535 c41 -22 90 -81 122 -150 78 -165 78 -379 0 -586 -34 -89 -28 -86 -117 -62 -110 29 -235 42 -403 42 -130 0 -143 2 -137 17 19 48 431 716 453 733 31 24 45 25 82 6z m425 -886 l38 -385 -51 -95 c-59 -110 -137 -204 -268 -325 l-92 -86 34 73 c68 149 78 276 34 454 l-20 82 54 75 c62 86 125 210 160 317 29 87 57 215 57 262 0 18 4 28 9 23 4 -6 25 -183 45 -395z m1099 240 c131 -10 277 -35 277 -48 0 -5 -80 -204 -84 -209 -1 -1 -36 15 -77 36 -131 69 -203 86 -369 86 -80 0 -162 -4 -182 -8 l-38 -8 35 73 c28 59 41 74 63 79 43 10 225 10 375 -1z m-1966 -272 c-4 -24 -9 -90 -12 -148 -9 -150 -2 -140 -100 -140 l-84 0 5 33 c2 17 9 75 14 127 18 168 14 158 74 163 121 8 109 12 103 -35z m378 7 c90 -23 87 -22 75 -45 -6 -12 -40 -57 -76 -101 l-66 -80 31 -72 c16 -39 28 -73 27 -75 -2 -1 -37 9 -78 22 -41 14 -100 28 -131 32 -43 5 -57 11 -57 23 0 9 5 85 12 170 l11 154 96 -6 c53 -3 123 -13 156 -22z m1500 -10 c69 -19 191 -78 220 -106 26 -25 9 -44 -27 -30 -83 31 -409 38 -639 13 l-65 -8 30 50 c34 55 62 70 166 92 80 17 232 11 315 -11z m100 -246 c33 -6 67 -14 74 -19 11 -6 5 -41 -27 -176 -44 -179 -73 -327 -92 -459 -6 -44 -13 -92 -16 -106 -5 -27 -4 -27 68 -33 40 -4 85 -9 101 -12 24 -5 27 -2 27 19 0 69 93 542 109 560 5 5 11 -16 15 -45 4 -29 16 -89 26 -133 38 -164 51 -296 48 -479 l-3 -176 30 -5 c72 -11 160 -23 162 -21 2 1 6 65 9 143 l7 140 31 -36 c17 -20 56 -64 87 -98 70 -76 100 -148 100 -242 1 -55 -19 -134 -121 -481 -189 -648 -346 -1166 -421 -1395 -65 -197 -69 -216 -69 -300 0 -114 12 -187 56 -353 l36 -132 -32 -58 c-204 -362 -546 -658 -935 -807 -224 -86 -427 -124 -696 -132 l-185 -6 -62 304 c-123 605 -176 919 -193 1146 -10 143 -33 242 -74 323 -30 58 -127 206 -194 294 -94 124 -142 246 -161 406 -6 52 -31 219 -55 370 -64 399 -69 440 -69 595 -1 137 0 143 41 275 55 177 107 388 135 554 l22 133 96 7 c136 9 480 -22 480 -44 0 -4 -12 -34 -26 -66 -32 -72 -41 -154 -24 -223 12 -50 11 -53 -14 -84 -91 -112 -205 -300 -206 -337 0 -10 28 -26 82 -45 45 -17 85 -31 89 -33 4 -2 12 12 18 30 35 106 212 321 452 550 174 166 236 241 322 390 80 137 188 265 230 273 168 31 601 45 722 24z m-1876 -180 c93 -13 194 -44 249 -76 40 -23 43 -27 40 -61 -3 -43 6 -41 -138 -16 -77 14 -155 19 -293 19 l-188 0 6 38 c3 20 8 56 11 78 l6 42 117 -7 c64 -4 149 -12 190 -17z" fill="#ffffff"/>
<path d="M6917 4413 c-4 -3 -7 -16 -7 -29 0 -39 -38 -148 -70 -197 -16 -26 -30 -51 -30 -56 0 -4 30 -34 66 -66 77 -68 79 -68 134 22 43 71 85 193 95 276 l7 57 -94 0 c-52 0 -98 -3 -101 -7z" fill="#ffffff"/>
</g>
</svg>